# Blender v2.90.0 OBJ File: 'RIG_november_1.blend'
# www.blender.org
mtllib 1.mtl
o shetka_Cube
v 0.557853 1.491396 0.529705
v 0.587716 1.515417 0.532434
v 0.663413 1.397998 0.145139
v 0.698971 1.426601 0.148389
v 0.564907 1.475674 0.539326
v 0.600465 1.504276 0.542576
v 0.674284 1.383751 0.151583
v 0.709842 1.412354 0.154833
v 0.581358 1.471642 0.446380
v 0.611221 1.495664 0.449109
v 0.590351 1.454290 0.449126
v 0.625910 1.482892 0.452376
v 0.637229 1.468971 0.346222
v 0.665206 1.445459 0.247041
v 0.624116 1.435432 0.350474
v 0.652094 1.411919 0.251293
v 0.641223 1.426166 0.244849
v 0.613245 1.449679 0.344030
v 0.676078 1.431212 0.253485
v 0.648100 1.454725 0.352666
v 0.579480 1.468537 0.442682
v 0.554036 1.489920 0.532882
v 0.589594 1.518523 0.536132
v 0.615038 1.497139 0.445932
v 0.563101 1.495568 0.435558
v 0.539597 1.515322 0.518882
v 0.569460 1.539343 0.521612
v 0.592964 1.519589 0.438287
vt 0.375000 0.208333
vt 0.625000 0.208333
vt 0.625000 0.250000
vt 0.375000 0.250000
vt 0.625000 0.500000
vt 0.375000 0.500000
vt 0.375000 0.625000
vt 0.625000 0.625000
vt 0.625000 0.750000
vt 0.375000 0.750000
vt 0.625000 1.000000
vt 0.375000 1.000000
vt 0.125000 0.625000
vt 0.125000 0.750000
vt 0.875000 0.625000
vt 0.875000 0.750000
vt 0.625000 0.583333
vt 0.875000 0.583333
vt 0.125000 0.583333
vt 0.375000 0.583333
vt 0.604979 0.004764
vt 0.604979 0.120236
vt 0.604979 0.120236
vt 0.604979 0.004764
vt 0.625000 0.541667
vt 0.375000 0.541667
vt 0.125000 0.500000
vt 0.125000 0.541667
vt 0.875000 0.500000
vt 0.875000 0.541667
vt 0.375000 0.125000
vt 0.625000 0.125000
vt 0.625000 0.166667
vt 0.375000 0.166667
vt 0.395021 0.004764
vt 0.395021 0.120236
vt 0.375000 0.000000
vt 0.625000 0.000000
vt 0.395021 0.004764
vt 0.395021 0.120236
vn -0.5708 0.7481 -0.3384
vn 0.2647 -0.2224 -0.9383
vn 0.5708 -0.7481 0.3384
vn -0.2647 0.2224 0.9383
vn -0.7772 -0.6252 -0.0710
vn 0.7772 0.6252 0.0710
vn 0.7939 0.6080 0.0049
vn -0.7567 -0.6393 -0.1368
vn -0.7939 -0.6080 -0.0049
vn 0.7567 0.6393 0.1368
usemtl (null)
s off
f 17/1/1 14/2/1 4/3/1 3/4/1
f 3/4/2 4/3/2 8/5/2 7/6/2
f 11/7/3 12/8/3 6/9/3 5/10/3
f 5/10/4 6/9/4 23/11/4 22/12/4
f 21/13/5 11/7/5 5/10/5 22/14/5
f 12/8/6 24/15/6 23/16/6 6/9/6
f 20/17/7 13/18/7 24/15/7 12/8/7
f 18/19/8 15/20/8 11/7/8 21/13/8
f 15/20/3 20/17/3 12/8/3 11/7/3
f 2/21/6 10/22/6 28/23/6 27/24/6
f 7/6/3 8/5/3 19/25/3 16/26/3
f 16/26/3 19/25/3 20/17/3 15/20/3
f 3/27/9 7/6/9 16/26/9 17/28/9
f 17/28/5 16/26/5 15/20/5 18/19/5
f 8/5/10 4/29/10 14/30/10 19/25/10
f 19/25/6 14/30/6 13/18/6 20/17/6
f 21/31/1 24/32/1 13/33/1 18/34/1
f 18/34/1 13/33/1 14/2/1 17/1/1
f 1/35/1 9/36/1 21/31/1 22/37/1
f 2/21/1 1/35/1 22/37/1 23/38/1
f 10/22/1 2/21/1 23/38/1 24/32/1
f 9/36/1 10/22/1 24/32/1 21/31/1
f 26/39/1 27/24/1 28/23/1 25/40/1
f 9/36/5 1/35/5 26/39/5 25/40/5
f 10/22/2 9/36/2 25/40/2 28/23/2
f 1/35/4 2/21/4 27/24/4 26/39/4
